<?xml version="1.0" encoding="UTF-8" standalone="no"?>
<!-- Created with Inkscape (http://www.inkscape.org/) -->

<svg
   xmlns:dc="http://purl.org/dc/elements/1.1/"
   xmlns:cc="http://creativecommons.org/ns#"
   xmlns:rdf="http://www.w3.org/1999/02/22-rdf-syntax-ns#"
   xmlns:svg="http://www.w3.org/2000/svg"
   xmlns="http://www.w3.org/2000/svg"
   xmlns:sodipodi="http://sodipodi.sourceforge.net/DTD/sodipodi-0.dtd"
   xmlns:inkscape="http://www.inkscape.org/namespaces/inkscape"
   id="svg3039"
   version="1.1"
   inkscape:version="0.48.2 r9819"
   width="100"
   height="107"
   sodipodi:docname="v-3.svg">
  <metadata
     id="metadata3045">
    <rdf:RDF>
      <cc:Work
         rdf:about="">
        <dc:format>image/svg+xml</dc:format>
        <dc:type
           rdf:resource="http://purl.org/dc/dcmitype/StillImage" />
        <dc:title></dc:title>
      </cc:Work>
    </rdf:RDF>
  </metadata>
  <defs
     id="defs3043">
    <inkscape:path-effect
       effect="spiro"
       id="path-effect3986"
       is_visible="true" />
    <inkscape:path-effect
       is_visible="true"
       id="path-effect4144"
       effect="spiro" />
    <inkscape:path-effect
       effect="spiro"
       id="path-effect4140"
       is_visible="true" />
    <inkscape:path-effect
       effect="spiro"
       id="path-effect3862"
       is_visible="true" />
  </defs>
  <sodipodi:namedview
     pagecolor="#ffffff"
     bordercolor="#666666"
     borderopacity="1"
     objecttolerance="10"
     gridtolerance="10"
     guidetolerance="10"
     inkscape:pageopacity="0"
     inkscape:pageshadow="2"
     inkscape:window-width="1134"
     inkscape:window-height="856"
     id="namedview3041"
     showgrid="false"
     inkscape:zoom="9.4428777"
     inkscape:cx="48.573568"
     inkscape:cy="68.111463"
     inkscape:window-x="263"
     inkscape:window-y="0"
     inkscape:window-maximized="0"
     inkscape:current-layer="svg3039" />
  <path
     style="fill:none;stroke:#000000;stroke-width:2;stroke-linecap:butt;stroke-linejoin:miter;stroke-miterlimit:4;stroke-opacity:1;stroke-dasharray:none"
     d="m 37,27 0,13 -22,0 0,22 10,0 0,-7 0,34 -11,0 0,11 23,0 0,-11 26,0 0,11 23,0 0,-11 -11,0 0,-34 0,7 10,0 0,-22 -22,0 0,-24 -26,0 0,11 -6,0 0,-17 38,0 0,17 -6,0"
     id="path3827"
     inkscape:connector-curvature="0"
     sodipodi:nodetypes="ccccccccccccccccccccccccccccc" />
  <path
     style="fill:#ff0000;stroke:#000000;stroke-width:1.39999998;stroke-linecap:round;stroke-linejoin:miter;stroke-miterlimit:4;stroke-opacity:1;stroke-dasharray:none"
     d="m 41.7,22 5,0"
     id="path3082"
     inkscape:connector-curvature="0"
     sodipodi:nodetypes="cc" />
  <path
     style="fill:none;stroke:#000000;stroke-width:1.40065753;stroke-linecap:round;stroke-linejoin:miter;stroke-miterlimit:4;stroke-opacity:1;stroke-dasharray:none"
     d="m 52.700329,21.999671 5.099278,0"
     id="path3084"
     inkscape:connector-curvature="0"
     sodipodi:nodetypes="cc" />
  <path
     style="fill:none;stroke:#000000;stroke-width:1.5;stroke-linecap:round;stroke-linejoin:miter;stroke-miterlimit:4;stroke-opacity:1;stroke-dasharray:none"
     d="m 51.974,29.2 c -1.418517,1.900354 -3.135218,1.994916 -4.774,0"
     id="path4082"
     inkscape:connector-curvature="0"
     sodipodi:nodetypes="cc" />
  <path
     sodipodi:type="arc"
     style="fill:none;stroke:#000000;stroke-width:1;stroke-miterlimit:4;stroke-opacity:1;stroke-dasharray:none"
     id="path4084"
     sodipodi:cx="44.776852"
     sodipodi:cy="25.595287"
     sodipodi:rx="2.7541881"
     sodipodi:ry="1.5048656"
     d="m 47.53104,25.595287 a 2.7541881,1.5048656 0 1 1 -5.508376,0 2.7541881,1.5048656 0 1 1 5.508376,0 z"
     transform="matrix(0.99858925,0,0,1.0002011,-0.1636827,0.3946998)" />
  <path
     transform="matrix(0.99858925,0,0,1.0002011,10.036317,0.39470059)"
     d="m 47.53104,25.595287 a 2.7541881,1.5048656 0 1 1 -5.508376,0 2.7541881,1.5048656 0 1 1 5.508376,0 z"
     sodipodi:ry="1.5048656"
     sodipodi:rx="2.7541881"
     sodipodi:cy="25.595287"
     sodipodi:cx="44.776852"
     id="path4130"
     style="fill:none;stroke:#000000;stroke-width:1;stroke-miterlimit:4;stroke-opacity:1;stroke-dasharray:none"
     sodipodi:type="arc" />
  <path
     sodipodi:type="arc"
     style="fill:none;stroke:#000000;stroke-width:1;stroke-miterlimit:4;stroke-opacity:1;stroke-dasharray:none"
     id="path4132"
     sodipodi:cx="45.344723"
     sodipodi:cy="25.907619"
     sodipodi:rx="0.65305489"
     sodipodi:ry="1.2493224"
     d="m 45.997778,25.907619 a 0.65305489,1.2493224 0 1 1 -1.30611,0 0.65305489,1.2493224 0 1 1 1.30611,0 z"
     transform="matrix(1.0644857,0,0,1.1567612,-3.7188123,-3.968929)" />
  <path
     transform="matrix(1.0644857,0,0,1.1567612,6.4811913,-3.968929)"
     d="m 45.997778,25.907619 a 0.65305489,1.2493224 0 1 1 -1.30611,0 0.65305489,1.2493224 0 1 1 1.30611,0 z"
     sodipodi:ry="1.2493224"
     sodipodi:rx="0.65305489"
     sodipodi:cy="25.907619"
     sodipodi:cx="45.344723"
     id="path4134"
     style="fill:none;stroke:#000000;stroke-width:1;stroke-miterlimit:4;stroke-opacity:1;stroke-dasharray:none"
     sodipodi:type="arc" />
  <path
     style="fill:none;stroke:#000000;stroke-width:1.51609826;stroke-linecap:butt;stroke-linejoin:miter;stroke-miterlimit:4;stroke-opacity:1;stroke-dasharray:none"
     d="m 43.766185,34.85 11.46763,0"
     id="path3984"
     inkscape:path-effect="#path-effect3986"
     inkscape:original-d="m 43.766185,34.85 11.46763,0"
     inkscape:connector-curvature="0" />
</svg>
