<?xml version="1.0" encoding="UTF-8" standalone="no"?>
<!-- Created with Inkscape (http://www.inkscape.org/) -->

<svg
   xmlns:dc="http://purl.org/dc/elements/1.1/"
   xmlns:cc="http://creativecommons.org/ns#"
   xmlns:rdf="http://www.w3.org/1999/02/22-rdf-syntax-ns#"
   xmlns:svg="http://www.w3.org/2000/svg"
   xmlns="http://www.w3.org/2000/svg"
   xmlns:inkscape="http://www.inkscape.org/namespaces/inkscape"
   version="1.1"
   width="100"
   height="107"
   id="svg3039">
  <metadata
     id="metadata3045">
    <rdf:RDF>
      <cc:Work
         rdf:about="">
        <dc:format>image/svg+xml</dc:format>
        <dc:type
           rdf:resource="http://purl.org/dc/dcmitype/StillImage" />
        <dc:title></dc:title>
      </cc:Work>
    </rdf:RDF>
  </metadata>
  <defs
     id="defs3043">
    <inkscape:path-effect
       effect="spiro"
       id="path-effect6073" />
    <inkscape:path-effect
       effect="spiro"
       id="path-effect5561" />
    <inkscape:path-effect
       effect="spiro"
       id="path-effect4875" />
    <inkscape:path-effect
       effect="spiro"
       id="path-effect4105" />
    <inkscape:path-effect
       effect="spiro"
       id="path-effect4101" />
    <inkscape:path-effect
       effect="spiro"
       id="path-effect3237" />
    <inkscape:path-effect
       effect="spiro"
       id="path-effect4144" />
    <inkscape:path-effect
       effect="spiro"
       id="path-effect4140" />
    <inkscape:path-effect
       effect="spiro"
       id="path-effect3862" />
    <inkscape:path-effect
       effect="spiro"
       id="path-effect3862-4" />
    <inkscape:path-effect
       effect="spiro"
       id="path-effect4140-8" />
    <inkscape:path-effect
       effect="spiro"
       id="path-effect4144-2" />
    <inkscape:path-effect
       effect="spiro"
       id="path-effect3986" />
  </defs>
  <path
     d="m 37,27 0,13 -22,0 0,22 10,0 0,-7 0,34 -11,0 0,11 23,0 0,-11 26,0 0,11 23,0 0,-11 -11,0 0,-34 0,7 10,0 0,-22 -22,0 0,-24 -26,0 0,11 -6,0 0,-17 38,0 0,17 -6,0"
     id="path3827"
     style="fill:none;stroke:#000000;stroke-width:2;stroke-linecap:butt;stroke-linejoin:miter;stroke-miterlimit:4;stroke-opacity:1;stroke-dasharray:none" />
  <path
     d="m 51.611938,27.724153 c 0.806835,1.939666 -5.093505,2.019116 -4.678881,0"
     id="path4082"
     style="fill:none;stroke:#000000;stroke-width:0.98230743;stroke-linecap:round;stroke-linejoin:miter;stroke-miterlimit:4;stroke-opacity:1;stroke-dasharray:none" />
  <path
     d="m 55,33.2 -11,0"
     id="path3235"
     style="fill:none;stroke:#000000;stroke-width:1.60000002;stroke-linecap:round;stroke-linejoin:miter;stroke-miterlimit:4;stroke-opacity:1;stroke-dasharray:none" />
  <path
     d="m 46.498072,25.006989 a 2.6674252,1.4852709 0 1 1 -5.334851,0 2.6674252,1.4852709 0 1 1 5.334851,0 z"
     transform="matrix(0.91876943,0,0,1.3133959,3.4794906,-7.8440762)"
     id="path4700"
     style="fill:none;stroke:#000000;stroke-width:0.91033012;stroke-linecap:round;stroke-linejoin:round;stroke-miterlimit:4;stroke-opacity:1;stroke-dasharray:none" />
  <path
     d="m 44.739995,25.158546 a 0.606233,1.5762057 0 1 1 -1.212466,0 0.606233,1.5762057 0 1 1 1.212466,0 z"
     transform="matrix(0.97479222,0,0,1.0727985,0.72850051,-2.0900514)"
     id="path4702"
     style="fill:none;stroke:#000000;stroke-width:0.80000001;stroke-linecap:round;stroke-linejoin:round;stroke-miterlimit:4;stroke-opacity:1;stroke-dasharray:none" />
  <path
     d="m 46.498072,25.006989 a 2.6674252,1.4852709 0 1 1 -5.334851,0 2.6674252,1.4852709 0 1 1 5.334851,0 z"
     transform="matrix(0.91876943,0,0,1.3133959,14.679491,-7.8438249)"
     id="path4877"
     style="fill:none;stroke:#000000;stroke-width:0.91033012;stroke-linecap:round;stroke-linejoin:round;stroke-miterlimit:4;stroke-opacity:1;stroke-dasharray:none" />
  <path
     d="m 44.739995,25.158546 a 0.606233,1.5762057 0 1 1 -1.212466,0 0.606233,1.5762057 0 1 1 1.212466,0 z"
     transform="matrix(0.97479222,0,0,1.0727985,11.928501,-2.0898001)"
     id="path4879"
     style="fill:none;stroke:#000000;stroke-width:0.80000001;stroke-linecap:round;stroke-linejoin:round;stroke-miterlimit:4;stroke-opacity:1;stroke-dasharray:none" />
  <path
     d="m 46,20.6 c -1.42488,-0.63328 -4.338987,-0.580507 -5.5,0"
     id="path4881"
     style="fill:none;stroke:#000000;stroke-width:1.29999995;stroke-linecap:round;stroke-linejoin:miter;stroke-miterlimit:4;stroke-opacity:1;stroke-dasharray:none" />
  <path
     d="m 58,20.6 c -1.42488,-0.63328 -4.338987,-0.580507 -5.5,0"
     id="path4883"
     style="fill:none;stroke:#000000;stroke-width:1.29999995;stroke-linecap:round;stroke-linejoin:miter;stroke-miterlimit:4;stroke-opacity:1;stroke-dasharray:none" />
  <path
     d="m 77.821012,49.250575 c 0.139776,2.421317 1.207565,-1.723271 1.841619,1.82852 0.20446,0.895576 0.869538,2.762026 1.0435,3.644882 0.366306,-3.585169 0.871729,-0.813503 1.329206,-1.168084 0.52648,-0.757901 -0.123467,-2.464375 -0.06458,-3.322465 -0.04319,-0.480604 -0.602975,-1.866894 -1.128834,-0.545473"
     id="path5542"
     style="fill:none;stroke:#000000;stroke-width:1px;stroke-linecap:butt;stroke-linejoin:miter;stroke-opacity:1" />
  <path
     d="m 47.017077,60.901225 5.050662,6.519947 -4.04053,6.152625 4.958833,-4.407851 1.010132,2.112095 3.673209,0.734642 -1.652944,-2.295756 -0.18366,-1.744774 3.030397,-4.867002 -4.867002,3.214058 -6.979097,-5.417984"
     id="path5559"
     style="fill:none;stroke:#000000;stroke-width:1px;stroke-linecap:round;stroke-linejoin:round;stroke-opacity:1" />
  <path
     d="m 55.656109,58.58371 -37.669684,-27.828054 15.045249,30.20362 -17.19457,8.031674 22.850679,-2.941176 3.959276,1.244344 -20.248869,13.235294 22.511312,-3.506788 8.484163,23.981896 1.696833,-23.303163 6.900452,7.579186 -3.393665,-9.728507 21.606335,8.82353 -5.090498,-7.013575 -10.294117,-9.38914 5.995475,-1.696833 -7.126697,-3.393665 21.266968,-30.429864 -24.208144,25 -8.710407,-9.38914 3.619909,10.520361"
     id="path6071"
     style="fill:none;stroke:#000000;stroke-width:1.29999995;stroke-linecap:butt;stroke-linejoin:round;stroke-miterlimit:4;stroke-opacity:1;stroke-dasharray:none" />
  <path
     d="m 19.79638,59.036199 c 2.510251,-1.114719 -0.21016,-3.556032 3.167423,-5.203668"
     id="path6075"
     style="fill:none;stroke:#000000;stroke-width:1px;stroke-linecap:round;stroke-linejoin:miter;stroke-opacity:1" />
  <path
     d="m 20.022624,52.022624 c 0.138439,1.090349 -0.576338,1.471395 -0.839199,2.507197 -0.278796,0.633623 -1.087129,0.765072 -1.423243,1.338952"
     id="path6082"
     style="fill:none;stroke:#000000;stroke-width:1px;stroke-linecap:round;stroke-linejoin:miter;stroke-opacity:1" />
  <path
     d="m 20.963626,84.996194 c -0.20185,-0.83188 -0.701873,-0.473534 -1.004108,-1.264304 -0.352227,-3.789051 -0.871757,-6.491358 0.924097,-6.977101"
     id="path6091"
     style="fill:none;stroke:#000000;stroke-width:1.20000005;stroke-linecap:round;stroke-linejoin:miter;stroke-miterlimit:4;stroke-opacity:1;stroke-dasharray:none" />
  <path
     d="m 17.042948,78.275031 c -1.128613,0.365834 -1.24508,1.987494 -0.08006,2.560426"
     id="path6097"
     style="fill:none;stroke:#000000;stroke-width:1.29999995;stroke-linecap:round;stroke-linejoin:miter;stroke-miterlimit:4;stroke-opacity:1;stroke-dasharray:none" />
  <path
     d="m 45.767916,49.870119 c 0.906669,0.110152 1.407812,-0.08064 2.000322,-0.640087"
     id="path6112"
     style="fill:none;stroke:#000000;stroke-width:1px;stroke-linecap:round;stroke-linejoin:miter;stroke-opacity:1" />
  <path
     d="m 6.8811901,99.07863 c 0.1763162,1.41535 0.2950533,2.64614 1.2331722,3.15339 0.6612281,0.39308 -1.1249315,1.71902 1.1672388,2.60755"
     id="path6121"
     style="fill:none;stroke:#000000;stroke-width:1px;stroke-linecap:round;stroke-linejoin:miter;stroke-opacity:1" />
  <path
     d="m 11.121924,96.99827 c 0.01279,0.403453 -1.3769284,0.58971 -1.3282211,1.736029 0.024354,0.57316 0.9284021,1.24631 1.1869361,1.986581 0.258533,0.74026 -0.128449,1.54765 -0.125713,1.74916 0.409803,2.09408 1.888731,-0.92188 2.267318,2.68954"
     id="path6137"
     style="fill:none;stroke:#000000;stroke-width:1.39999998;stroke-linecap:round;stroke-linejoin:miter;stroke-miterlimit:4;stroke-opacity:1;stroke-dasharray:none" />
  <path
     d="m 90.735693,104.99965 c 0.337752,-1.18315 1.680288,-1.21589 2.107792,-1.32405 1.161569,-1.77679 0.240046,-1.33899 0.132408,-2.99661"
     id="path6169"
     style="fill:none;stroke:#000000;stroke-width:1.20000005;stroke-linecap:round;stroke-linejoin:miter;stroke-miterlimit:4;stroke-opacity:1;stroke-dasharray:none" />
  <path
     d="m 91.855887,97.238312 c -2.203958,0.512654 0.04508,2.914998 -1.296475,3.371608 -1.34156,0.45661 -0.48394,2.22677 -1.74038,2.69411 -1.256441,0.46733 -1.25945,-0.64369 -3.444192,1.61559"
     id="path6211"
     style="fill:none;stroke:#000000;stroke-width:1.20000005;stroke-linecap:round;stroke-linejoin:miter;stroke-miterlimit:4;stroke-opacity:1;stroke-dasharray:none" />
  <path
     d="m 71.052289,3.1420376 c 0.761648,0.1521094 1.467056,-0.2924225 2.057411,-0.718242 0.622812,-0.2502963 1.42601,-0.027539 1.775176,0.5606907 0.762601,0.8186044 1.089096,1.9477584 1.161104,3.0429573 0.346429,0.7235983 1.308563,0.6836759 1.791917,1.2672299 1.126273,0.9831029 1.532436,2.5615819 1.375738,4.0087725"
     id="path6232"
     style="fill:none;stroke:#000000;stroke-width:1.20000005;stroke-linecap:round;stroke-linejoin:miter;stroke-miterlimit:4;stroke-opacity:1;stroke-dasharray:none" />
  <path
     d="m 68.811901,5.1423835 c 1.241179,-0.2051763 2.671644,0.091009 3.491696,1.1099592 0.988857,1.3109191 0.950286,1.5277206 1.646928,2.9700474 0.187442,0.493805 0.0041,2.6658509 0.475364,3.0298159 0.858902,0.582776 1.255454,0.367341 0.38694,1.771693"
     id="path6253"
     style="fill:none;stroke:#000000;stroke-width:1.39999998;stroke-linecap:round;stroke-linejoin:miter;stroke-miterlimit:4;stroke-opacity:1;stroke-dasharray:none" />
  <path
     d="M 18.083128,13.703864 C 19.628262,6.7968948 25.238958,2.279566 31.525449,2.1018577"
     id="path6382"
     style="fill:none;stroke:#000000;stroke-width:1.39999998;stroke-linecap:round;stroke-linejoin:miter;stroke-miterlimit:4;stroke-opacity:1;stroke-dasharray:none" />
  <path
     d="M 22.643917,13.863892 C 23.450666,7.6062724 34.33484,3.4766328 36.006224,6.0225358"
     id="path6384"
     style="fill:none;stroke:#000000;stroke-width:1.70000005;stroke-linecap:round;stroke-linejoin:miter;stroke-miterlimit:4;stroke-opacity:1;stroke-dasharray:none" />
  <path
     d="m 64.41114,83.155876 c 2.107725,0.06804 1.200422,-0.924231 3.760621,-1.040163"
     id="path6386"
     style="fill:none;stroke:#000000;stroke-width:1px;stroke-linecap:round;stroke-linejoin:miter;stroke-opacity:1" />
  <path
     d="m 69.051943,83.635959 c 0.0045,2.274453 -1.048407,0.192752 -2.640481,1.520206"
     id="path6397"
     style="fill:none;stroke:#000000;stroke-width:1px;stroke-linecap:round;stroke-linejoin:miter;stroke-opacity:1" />
  <path
     d="m 44.007611,84.116042 c -2.166855,0.297171 0.18805,-1.717758 -3.040505,-1.200069"
     id="path6424"
     style="fill:none;stroke:#000000;stroke-width:1px;stroke-linecap:round;stroke-linejoin:miter;stroke-opacity:1" />
  <path
     d="m 39.834582,83.857536 c -0.32272,0.84754 0.461008,1.571753 1.280223,1.034025"
     id="path6484"
     style="fill:none;stroke:#000000;stroke-width:1;stroke-linecap:round;stroke-linejoin:miter;stroke-miterlimit:4;stroke-opacity:1;stroke-dasharray:none" />
  <path
     d="m 60.022689,90.160165 c -0.633712,-0.82936 -0.902523,0.682401 -1.073012,0.731734 -0.559654,0.531993 -0.846933,-0.07891 -1.290479,0.351537"
     id="path6486"
     style="fill:none;stroke:#000000;stroke-width:1px;stroke-linecap:round;stroke-linejoin:miter;stroke-opacity:1" />
  <path
     d="M 57.806921,93.803871 58.59475,93.016043"
     id="path6496"
     style="fill:none;stroke:#000000;stroke-width:1px;stroke-linecap:round;stroke-linejoin:miter;stroke-opacity:1" />
</svg>
